<svg width="218" height="50" fill="none" xmlns="http://www.w3.org/2000/svg"><path d="M217.011 21.012v17.01c0 1.843-.994 2.839-2.849 2.839h-4.859c-4.854 0-5.925-2.978-5.925-7.514s1.084-7.519 5.925-7.519h3.254v-4.816h4.454zm-4.454 15.454v-7.374h-2.023c-2.457 0-2.598 2.1-2.598 4.255 0 2.326.141 4.255 2.652 4.255h.83c.857 0 1.139-.285 1.139-1.136zm-11.809-5.233v9.628h-4.454v-8.478c0-2.155-.601-3.291-2.771-3.291h-.57c-.715 0-1.003.285-1.003.991v10.778h-4.453V28.667c0-1.983 1.003-2.839 2.858-2.839h3.51c4.102 0 6.883 1.11 6.883 5.432m-16.423-.665v7.428c0 1.842-1.003 2.838-2.858 2.838h-6.254c-2.712 0-3.737-1.589-3.737-4.708 0-2.833 1.025-4.68 3.737-4.68h4.654v-.625c0-1.186-.684-1.756-1.91-1.756h-5.424v-3.264h7.106c2.999 0 4.686 1.929 4.686 4.767zm-4.458 6.124v-2.182h-2.343c-1.053 0-1.481.593-1.481 1.644 0 .964.342 1.62 1.458 1.62h1.368c.711 0 .998-.376.998-1.082zm-10.228.172v3.97h-10.16c-1.86 0-3.027-.905-3.027-3.037V21.012h4.964V35.56c0 .992.342 1.331 1.345 1.331h6.878z" fill="#BB1523"/><path d="M152.965 31.233v9.628h-4.453v-8.478c0-2.155-.601-3.291-2.767-3.291h-.574c-.711 0-.998.285-.998.991v10.778h-4.458V28.667c0-1.983 1.003-2.839 2.858-2.839h3.514c4.08 0 6.878 1.11 6.878 5.432m-16.741-5.432h-4.454v15.033h4.454V25.828zm0-4.816h-4.454v3.345h4.454v-3.345zm-6.619 4.816l-2.511 12.675c-.369 1.874-1.313 2.52-3.428 2.52s-3.054-.846-3.341-2.208l-1.654-7.695c-.06-.254-.087-.485-.228-.485-.142 0-.174.231-.233.485l-1.654 7.695c-.283 1.358-1.226 2.209-3.314 2.209s-3.081-.647-3.45-2.521l-2.517-12.675h4.258l1.741 9.9c.027.199.141.453.287.453s.228-.222.255-.421l1.801-8.451c.282-1.309 1.308-1.648 2.826-1.648s2.539.34 2.826 1.647l1.809 8.452c.032.199.114.42.26.42.146 0 .255-.221.287-.452l1.732-9.9h4.248zm-24.153 0v3.264h-.456c-2.625 0-3.4 1.358-3.4 3.97v7.799h-4.453v-9.053c0-4.427 2.174-5.962 6.627-5.962l1.682-.018zm-11.418 4.767v7.428c0 1.842-1.003 2.838-2.858 2.838h-6.253c-2.712 0-3.738-1.589-3.738-4.708 0-2.833 1.026-4.68 3.738-4.68h4.658v-.625c0-1.186-.688-1.756-1.919-1.756h-5.424v-3.264h7.11c3 0 4.686 1.929 4.686 4.767zm-4.453 6.124v-2.182h-2.343c-1.057 0-1.486.593-1.486 1.644 0 .964.342 1.62 1.454 1.62h1.368c.715 0 1.002-.376 1.002-1.082m-10.811-5.785c0 5.812-1.058 9.927-7.48 9.927h-5.711c-1.855 0-3.027-.905-3.027-3.037V24.072c0-2.127 1.172-3.06 3.027-3.06h5.47c6.682 0 7.748 4.11 7.748 9.922m-8.797 5.957c3.004 0 3.647-1.702 3.647-5.957s-.739-5.952-3.647-5.952h-1.053c-1.085 0-1.426.34-1.426 1.417v9.075c0 1.078.341 1.417 1.426 1.417h1.053zM54.662 24.258c.146 2.716-1.04 5.794-2.822 7.242-.538.453-1.85 1.385-3.231 1.385a3.13 3.13 0 01-.502-.04 2.577 2.577 0 01-.638-.213v.172a.29.29 0 010 .059v.638c-.187 6.559-3.45 13.321-14.978 15.725l-.2.04c-1.607.392-3.248.63-4.9.711a25.17 25.17 0 01-5.214-.81l-.388-.086c-9.595-2.177-14.732-8.08-14.563-16.454a2.366 2.366 0 01-.647.217c-.164.027-.33.041-.497.041-1.367 0-2.694-.941-3.232-1.385-1.786-1.444-2.976-4.504-2.84-7.247a9.375 9.375 0 01.79-3.196 6.905 6.905 0 011.524-2.43A6.963 6.963 0 014.71 17.02c2.083-.82 4.44-.575 6.172-.113C14.979 8.193 26.087 11.289 29.205 0c.994 1.358 2.612 3.802 1.254 6.5 1.54-1.421 1.321-3.132 1.303-3.924 1.367 1.009 2.653 3.526 1.23 5.386.329-.29 1.314-1.231 2.526-1.448-.584 1.71-.064 3.281 2.033 4.59a15.33 15.33 0 012.115 1.258 16.585 16.585 0 014.216 4.527c1.727-.453 4.047-.675 6.103.13.9.366 1.712.914 2.385 1.61a6.918 6.918 0 011.526 2.428 9.4 9.4 0 01.789 3.2m-2.156.512a5.05 5.05 0 00-1.468-4.114c-.912-.97-2.439-1.227-3.674-1.073a3.754 3.754 0 00-1.642.596 3.722 3.722 0 00-1.188 1.273 3.24 3.24 0 00.086 3.169 3.94 3.94 0 011.641-1.716c.602-.384 1.331-.299 1.997-.212a3.625 3.625 0 00-1.514 1.914 1.77 1.77 0 011.54.453 1.377 1.377 0 00-1.166.53l1.094.375a2.594 2.594 0 00-1.094 2.05c.003.046.003.091 0 .137a2.64 2.64 0 002.279.38 4.514 4.514 0 002.108-1.427c.55-.668.894-1.478.992-2.335M42.437 43.102c2.553-2.59 4.17-6.31 3.81-11.665a5.143 5.143 0 01-.168-.63c-1.03-1.385-2.767-1.561-3.715-1.53v-.837a2.607 2.607 0 00-.396-1.358c.182-2.449-.233-5.038-1.145-6.79a8.908 8.908 0 00-2.816-3.05 8.985 8.985 0 00-3.902-1.454c-2.735-.258-5.515 1.358-6.482 3.73a.26.26 0 01-.36.098.259.259 0 01-.095-.098c-.967-2.38-3.752-3.988-6.482-3.73a9.155 9.155 0 00-3.93 1.451 9.078 9.078 0 00-2.861 3.044c-.912 1.752-1.336 4.377-1.145 6.845a2.63 2.63 0 00-.355 1.312v.86c-1.213 0-2.849.308-3.797 1.634a3.987 3.987 0 01-.105.408c-.374 4.35.72 8.039 3.145 10.895 2.115 2.182 5.37 4.01 10.283 5.006l.912.195c1.493.373 3.02.6 4.558.674a21.895 21.895 0 003.674-.488c.455-.091.911-.177 1.33-.245 4.29-.688 7.654-2.136 10.028-4.277M27.77 7.695a5.925 5.925 0 00.743-2.716 8.643 8.643 0 01-1.39 2.313 8.144 8.144 0 01-2.106 1.675c-.369.226-.761.403-1.199.62a9.266 9.266 0 00-3.45 2.562c.798-.606 1.823-.982 3.792-1.675 2.28-.692 3.127-1.896 3.61-2.779zM10.12 24.71a3.202 3.202 0 00.146-3.259 3.717 3.717 0 00-1.19-1.274 3.749 3.749 0 00-1.645-.595c-1.226-.154-2.735.104-3.646 1.072a5.068 5.068 0 00-1.431 4.115 4.47 4.47 0 00.986 2.321 4.518 4.518 0 002.09 1.427 2.67 2.67 0 002.193-.33.697.697 0 01-.028-.186 2.611 2.611 0 00-1.094-2.05l1.094-.376a1.367 1.367 0 00-1.167-.53 1.757 1.757 0 011.536-.452 3.625 3.625 0 00-1.508-1.915c.66-.086 1.39-.172 1.992.213.455.303 1.367.905 1.672 1.81" fill="#1C1C1B"/><path d="M51.06 20.654a5.05 5.05 0 011.431 4.115 4.464 4.464 0 01-.99 2.335 4.513 4.513 0 01-2.108 1.427 2.648 2.648 0 01-2.28-.38 1.23 1.23 0 000-.136 2.576 2.576 0 011.095-2.05l-1.094-.377a1.367 1.367 0 011.212-.53 1.776 1.776 0 00-1.54-.452 3.625 3.625 0 011.513-1.915c-.666-.085-1.395-.171-1.997.213a3.94 3.94 0 00-1.622 1.734 3.244 3.244 0 01-.087-3.169 3.722 3.722 0 011.182-1.28 3.752 3.752 0 011.64-.607c1.235-.154 2.734.104 3.673 1.072m-4.84 10.783c.36 5.355-1.258 9.053-3.81 11.665-2.394 2.14-5.758 3.59-10.029 4.277-.405.068-.861.154-1.335.245-1.2.265-2.42.429-3.647.488a23.512 23.512 0 01-4.558-.674l-.911-.195c-4.914-1-8.168-2.824-10.283-5.006-2.425-2.856-3.52-6.545-3.145-10.895.042-.134.077-.27.105-.408.948-1.326 2.584-1.62 3.8-1.634v2.01c0 .696.274 1.364.763 1.863a2.698 2.698 0 001.854.808h7.343a2.699 2.699 0 001.899-.784c.503-.5.786-1.18.786-1.887v-.815c.043-.036.089-.07.137-.1.21-.134.439-.24.679-.312a5.297 5.297 0 011.463-.208 4.8 4.8 0 011.463.204c.302.097.582.25.825.452v.81c0 .708.283 1.387.786 1.887a2.698 2.698 0 001.899.784h7.334a2.703 2.703 0 001.9-.783c.504-.5.788-1.18.789-1.887v-2.064c.953-.032 2.685.135 3.715 1.53.043.213.099.423.169.629m-1.477 5.047c0-.411-.164-.805-.457-1.096a1.569 1.569 0 00-1.102-.457h-3.756a1.57 1.57 0 00-1.105.455 1.547 1.547 0 000 2.196c.293.29.69.454 1.105.454h3.756a1.562 1.562 0 001.559-1.552zm-10.42.452a.576.576 0 00-.335-.552.587.587 0 00-.221-.054h-.547a4.077 4.077 0 01-.456 0 .613.613 0 00-.456.172.562.562 0 00-.164.453 5.451 5.451 0 01-1.527 3.992c-1.02 1-2.735 1.466-4.53 1.227a4.537 4.537 0 01-2.198-.933 4.492 4.492 0 01-1.412-1.915.586.586 0 00-.77-.312.589.589 0 00-.361.542.57.57 0 00.046.223 5.635 5.635 0 001.776 2.399 5.691 5.691 0 002.759 1.164 7.8 7.8 0 001.071.072 6.407 6.407 0 004.444-1.666 6.618 6.618 0 001.874-4.273h.405a.581.581 0 00.611-.552m-5.146-2.865a.973.973 0 00.32-.793.45.45 0 00-.302-.407.532.532 0 00-.41.095c-.456.267-1.171 1.358-.962 1.81.251.168.948-.285 1.368-.696m-2.343.697c.2-.453-.533-1.535-.966-1.81a.53.53 0 00-.41-.096.456.456 0 00-.302.407.967.967 0 00.32.793c.405.411 1.103.864 1.367.697m-10.092 1.729a1.552 1.552 0 00-.459-1.097 1.573 1.573 0 00-1.104-.456h-3.715a1.57 1.57 0 00-1.105.455 1.547 1.547 0 000 2.196c.293.29.69.454 1.105.454h3.715a1.574 1.574 0 001.104-.456c.293-.29.458-.685.46-1.096z" fill="#fff"/><path d="M43.203 34.931c.414 0 .812.164 1.105.455a1.547 1.547 0 010 2.196c-.293.29-.69.454-1.105.454h-3.756c-.415 0-.812-.163-1.105-.454a1.547 1.547 0 010-2.196 1.57 1.57 0 011.105-.455h3.756zm-.839-5.653v2.032a2.666 2.666 0 01-.789 1.887c-.504.5-1.187.782-1.9.784H32.34a2.704 2.704 0 01-1.91-.778 2.67 2.67 0 01-.793-1.893v-.81a2.487 2.487 0 00-.825-.453 4.822 4.822 0 00-1.454-.172 5.27 5.27 0 00-1.472.222 2.71 2.71 0 00-.68.312 1.32 1.32 0 00-.136.1v.815a2.66 2.66 0 01-.786 1.886 2.696 2.696 0 01-1.899.784h-7.334a2.703 2.703 0 01-1.9-.783 2.666 2.666 0 01-.789-1.887V28.44a2.67 2.67 0 01.801-1.865 2.708 2.708 0 011.888-.774h7.343c.708 0 1.386.277 1.89.772.502.494.788 1.165.795 1.867v1.177c.117-.126.249-.238.392-.335a3.375 3.375 0 011.887-.584 3.33 3.33 0 011.91.561c.14.101.27.215.387.34V28.44a2.657 2.657 0 01.796-1.867 2.694 2.694 0 011.889-.772h7.325c.459.002.91.122 1.309.347.399.225.733.548.97.939.255.408.392.878.396 1.358l.023.833zm-1.171 2.032v-2.87a1.493 1.493 0 00-.45-1.064 1.517 1.517 0 00-1.077-.434H32.34a1.524 1.524 0 00-1.071.437 1.502 1.502 0 00-.447 1.061v2.87c0 .4.16.783.445 1.066.284.282.67.441 1.073.441h7.325a1.522 1.522 0 001.518-1.507m-17.284 0v-2.87a1.498 1.498 0 00-.445-1.06 1.519 1.519 0 00-1.069-.438h-7.334a1.524 1.524 0 00-1.071.437 1.502 1.502 0 00-.447 1.061v2.87c.002.4.162.782.446 1.064.285.283.67.442 1.072.443h7.343a1.514 1.514 0 001.514-1.507" fill="#BB1523"/><path d="M40.824 20.283c.911 1.743 1.326 4.332 1.144 6.79a2.69 2.69 0 00-2.302-1.272H32.34a2.695 2.695 0 00-1.9.765 2.657 2.657 0 00-.803 1.874v1.16a2.72 2.72 0 00-.387-.34 3.33 3.33 0 00-1.892-.56 3.375 3.375 0 00-1.887.583 2.098 2.098 0 00-.392.335V28.44a2.657 2.657 0 00-.796-1.867 2.694 2.694 0 00-1.889-.772h-7.343a2.69 2.69 0 00-1.352.365c-.41.238-.749.581-.981.993-.192-2.467.223-5.092 1.144-6.844a9.079 9.079 0 012.86-3.044 9.156 9.156 0 013.931-1.45c2.735-.259 5.515 1.357 6.482 3.73a.258.258 0 00.228.133.261.261 0 00.227-.134c.967-2.38 3.756-3.988 6.482-3.73a8.986 8.986 0 013.9 1.45 8.909 8.909 0 012.819 3.045m-4.157 4.55a.592.592 0 00.59-.347.58.58 0 00-.35-.788.592.592 0 00-.24-.03h-2.653a.59.59 0 00-.536.582.582.582 0 00.536.582h2.653zm-15.98-1.1a.59.59 0 00.573-.594.565.565 0 00-.367-.532.58.58 0 00-.225-.038l-2.502.032h-.15a.59.59 0 00-.537.581.582.582 0 00.536.582h.155l2.516-.032z" fill="#fff"/><path d="M41.193 28.44v2.87a1.502 1.502 0 01-.45 1.068 1.523 1.523 0 01-1.077.44H32.34c-.403 0-.789-.16-1.073-.442a1.502 1.502 0 01-.445-1.066v-2.87a1.492 1.492 0 01.447-1.061 1.515 1.515 0 011.071-.437h7.325a1.523 1.523 0 011.071.437 1.504 1.504 0 01.447 1.061m-4.394 1.317a1.65 1.65 0 00-.468-1.184 1.671 1.671 0 00-1.173-.509 1.658 1.658 0 00-.929.296 1.64 1.64 0 00-.598.764 1.77 1.77 0 00-.119.728c.032.42.225.813.54 1.095a1.652 1.652 0 002.278-.072c.296-.302.464-.705.469-1.127" fill="#fff"/><path d="M37.218 24.28a.587.587 0 01-.583.584h-2.662a.59.59 0 01-.536-.582.582.582 0 01.536-.581h2.653a.6.6 0 01.592.58zm-2.069 3.784c.332-.01.66.076.943.25a1.673 1.673 0 01.373 2.559 1.697 1.697 0 01-1.808.469 1.695 1.695 0 01-.794-.563 1.677 1.677 0 01-.35-.904h.911v-.742h-.802a1.64 1.64 0 01.596-.77c.273-.19.597-.294.93-.299z" fill="#1C1C1B"/><path d="M34.447 29.133v.742h-.912a1.771 1.771 0 01.118-.729l.794-.013z" fill="#fff"/><path d="M33.786 36.32a.587.587 0 01.522.383.577.577 0 01-.152.624.581.581 0 01-.416.153h-.41a6.619 6.619 0 01-1.869 4.268 6.407 6.407 0 01-4.44 1.625 7.97 7.97 0 01-1.07-.072 5.69 5.69 0 01-2.75-1.168 5.634 5.634 0 01-1.768-2.395.58.58 0 01.315-.765.592.592 0 01.77.313c.29.752.777 1.414 1.412 1.914a4.55 4.55 0 002.198.933c1.773.24 3.51-.226 4.531-1.227a5.452 5.452 0 001.527-3.992.56.56 0 01.374-.586.613.613 0 01.246-.039c.152.009.304.009.456 0h.547" fill="#BB1523"/><path d="M29.524 33.265a.967.967 0 01-.319.793c-.406.407-1.103.864-1.367.697-.21-.453.524-1.535.961-1.811a.531.531 0 01.41-.095.456.456 0 01.301.407" fill="#1C1C1B"/><path d="M28.512 4.98a5.925 5.925 0 01-.743 2.715c-.483.86-1.322 2.064-3.6 2.757-1.97.692-2.995 1.068-3.788 1.675a9.27 9.27 0 013.445-2.562c.456-.218.83-.394 1.2-.62A8.144 8.144 0 0027.13 7.27a8.642 8.642 0 001.381-2.29z" fill="#fff"/><path d="M25.896 32.953c.456.267 1.167 1.358.966 1.81-.255.168-.952-.285-1.367-.696a.973.973 0 01-.32-.792.45.45 0 01.302-.408.527.527 0 01.41.095" fill="#1C1C1B"/><path d="M23.909 28.44v2.87c0 .399-.16.782-.443 1.064a1.523 1.523 0 01-1.07.443h-7.344a1.528 1.528 0 01-1.072-.443 1.506 1.506 0 01-.446-1.064v-2.87a1.494 1.494 0 01.447-1.061 1.515 1.515 0 011.071-.437h7.343a1.504 1.504 0 011.514 1.498zm-2.703 1.317a1.65 1.65 0 00-.47-1.187 1.672 1.672 0 00-1.18-.506 1.653 1.653 0 00-.93.295 1.635 1.635 0 00-.597.765c-.08.199-.12.41-.119.624v.104c.031.42.225.813.54 1.095a1.652 1.652 0 002.277-.072c.297-.302.465-.705.47-1.127" fill="#fff"/><path d="M21.228 23.171a.59.59 0 01-.574.593l-2.516.027h-.155a.59.59 0 01-.536-.581.582.582 0 01.536-.582h.15l2.503-.027a.58.58 0 01.547.348c.03.07.046.146.045.222zm-1.672 4.893a1.704 1.704 0 011.588.976 1.673 1.673 0 01-.278 1.834 1.698 1.698 0 01-1.808.467 1.695 1.695 0 01-.793-.562 1.678 1.678 0 01-.35-.904h.975v-.742h-.861a1.654 1.654 0 011.526-1.069z" fill="#1C1C1B"/><path d="M18.89 29.133v.742h-.97v-.104a1.652 1.652 0 01.118-.625l.852-.013z" fill="#fff"/><path d="M15.23 34.931c.415 0 .812.164 1.105.455a1.547 1.547 0 010 2.196c-.293.29-.69.454-1.105.454h-3.715c-.414 0-.812-.163-1.105-.454a1.547 1.547 0 010-2.196 1.57 1.57 0 011.105-.455h3.715z" fill="#BB1523"/><path d="M10.266 21.451a3.2 3.2 0 01-.146 3.26c-.3-.906-1.194-1.485-1.672-1.811-.602-.385-1.331-.3-1.992-.213a3.625 3.625 0 011.508 1.915 1.753 1.753 0 00-1.536.452 1.377 1.377 0 011.167.53l-1.094.376a2.631 2.631 0 011.094 2.05c.001.063.01.125.028.186a2.677 2.677 0 01-2.193.33 4.518 4.518 0 01-2.107-1.428 4.47 4.47 0 01-.992-2.333 5.068 5.068 0 011.431-4.115c.912-.969 2.443-1.227 3.67-1.073a3.75 3.75 0 011.644.595c.493.325.9.762 1.19 1.275" fill="#fff"/></svg>